# xmcd
#
# Track frame offsets: 
#        150
#        15071
#        28757
#        42596
#        56767
#        66947
#        80256
#        92129
#        104069
#        116733
#        127574
#        138261
#        151814
#        162698
#        178806
#        189466
#
# Disc length: 2702 seconds
#
# Revision: 1
# Processed by: cddbd v1.5.2PL0 Copyright (c) Steve Scherf et al.
# Submitted via: ExactAudioCopyFreeDBPlugin 1.0
#
DISCID=d40a8c10
DTITLE=Various Artist - Country and Western Vol.2 [CD 3)
DYEAR=2005
DGENRE=Country
TTITLE0=Jerry Reed - Lord. Mr. Ford
TTITLE1=Shelby Mason - Tenderly
TTITLE2=Willie Nelson - If you can touch her at all
TTITLE3=Jonny Hill - I recall a gypsy woman
TTITLE4=Dave Dudley - Truck driving son-of-a-gun
TTITLE5=Carol Ann King - Baby
TTITLE6=Ricky Skaggs - Are you proud of America
TTITLE7=Nashville Boys - Country hill
TTITLE8=Jonny Hill - Some broken hearts never mend
TTITLE9=Patsy Cline - I can´t forget you
TTITLE10=Waylon Jennings - The taker
TTITLE11=Freddy Quinn - Green green gras of home
TTITLE12=Stonewall Jackson - Let the sunshine on the people
TTITLE13=Bobby Bare - Mary Ann regertes
TTITLE14=Dolly Parton - Love is like a butterfly
TTITLE15=Jonny Hill - Wooden heart
EXTD=
EXTT0=Lord. Mr. Ford
EXTT1=
EXTT2=
EXTT3=
EXTT4=
EXTT5=
EXTT6=
EXTT7=
EXTT8=
EXTT9=
EXTT10=
EXTT11=
EXTT12=
EXTT13=
EXTT14=
EXTT15=
PLAYORDER=
